<?xml version="1.0" encoding="UTF-8"?><svg id="Layer_1" xmlns="http://www.w3.org/2000/svg" xmlns:xlink="http://www.w3.org/1999/xlink" viewBox="0 0 100 100"><defs><style>.cls-1{stroke-width:3px;}.cls-1,.cls-2,.cls-3,.cls-4{fill:none;}.cls-1,.cls-2,.cls-4{stroke-miterlimit:10;}.cls-1,.cls-4{stroke:#cea351;}.cls-2{stroke:#231f20;stroke-width:1.5px;}.cls-5{clip-path:url(#clippath);}.cls-4{stroke-width:4px;}</style><clipPath id="clippath"><rect class="cls-3" x="-858" y="-458.27" width="615.48" height="736.48"/></clipPath></defs><g class="cls-5"><polyline class="cls-1" points="-180.86 81.88 -73.96 -13.89 -3.18 -77.29 36.32 -112.68 194.22 -249.15 217.9 -273.97 329.43 -444.04"/><polyline class="cls-4" points="-506.05 3.99 -487.29 8.25 -461.18 9.96 -429.43 17.94 -403.83 27 -354.95 38.22 -253.37 58.84 -159.44 87.93 -91.72 117.38 29.43 151.66 329.43 284.74"/></g><polyline class="cls-2" points="55.57 60.73 44.15 24.58 53.24 24.58 53.37 25.01 64.43 60.36"/><line class="cls-2" x1="45.82" y1="29.72" x2="54.85" y2="29.72"/><line class="cls-2" x1="47.51" y1="35.19" x2="56.59" y2="35.19"/><line class="cls-2" x1="49.3" y1="24.69" x2="52.57" y2="35.19"/><polyline class="cls-2" points="53.85 54.57 44.31 51.64 47.01 33.47"/><polyline class="cls-2" points="80.67 59.93 80.67 29.24 54.7 29.24"/><line class="cls-2" x1="42.87" y1="60.45" x2="44.38" y2="51.11"/><line class="cls-2" x1="80.67" y1="34.22" x2="56.26" y2="34.22"/><line class="cls-2" x1="80.67" y1="43.57" x2="59.18" y2="43.57"/><line class="cls-2" x1="80.67" y1="51.98" x2="61.81" y2="51.98"/><polyline class="cls-2" points="18.72 31.61 34.69 31.61 34.69 60.69 16.9 60.69"/><polyline class="cls-2" points="84.11 78.17 84.11 64.6 31.05 64.6 31.05 78.17"/><line class="cls-2" x1="23.91" y1="90.37" x2="43.36" y2="68.32"/><line class="cls-2" x1="72.95" y1="68.32" x2="92.4" y2="90.37"/><line class="cls-2" x1="54.22" y1="68.94" x2="46.23" y2="90.99"/><line class="cls-2" x1="66.78" y1="90.99" x2="58.79" y2="68.94"/><line class="cls-2" x1="40.7" y1="82.37" x2="34.61" y2="91.48"/><line class="cls-2" x1="45.27" y1="75.53" x2="42.55" y2="79.6"/><line class="cls-2" x1="47.8" y1="71.75" x2="46.23" y2="74.09"/><line class="cls-2" x1="49.28" y1="69.54" x2="48.52" y2="70.68"/><line class="cls-2" x1="75.45" y1="81.68" x2="81.53" y2="90.79"/><line class="cls-2" x1="70.88" y1="74.85" x2="73.6" y2="78.92"/><line class="cls-2" x1="68.35" y1="71.06" x2="69.92" y2="73.41"/><line class="cls-2" x1="66.87" y1="68.85" x2="67.63" y2="69.99"/><line class="cls-2" x1="34.69" y1="42.39" x2="7.6" y2="42.39"/><polyline class="cls-2" points="23.64 31.61 23.64 8.52 39.69 20.48 39.69 60.9"/><line class="cls-2" x1="13.77" y1="10.3" x2="23.64" y2="10.3"/></svg>