<?xml version="1.0" encoding="UTF-8"?><svg id="Layer_1" xmlns="http://www.w3.org/2000/svg" xmlns:xlink="http://www.w3.org/1999/xlink" viewBox="0 0 100 100"><defs><style>.cls-1{stroke-width:3px;}.cls-1,.cls-2,.cls-3,.cls-4{fill:none;}.cls-1,.cls-2,.cls-4{stroke-miterlimit:10;}.cls-1,.cls-4{stroke:#cea351;}.cls-2{stroke:#231f20;stroke-width:1.5px;}.cls-5{clip-path:url(#clippath);}.cls-4{stroke-width:4px;}</style><clipPath id="clippath"><rect class="cls-3" x="-978" y="-458.27" width="615.48" height="736.48"/></clipPath></defs><g class="cls-5"><polyline class="cls-1" points="-300.86 81.88 -193.96 -13.89 -123.18 -77.29 -83.68 -112.68 74.22 -249.15 97.9 -273.97 209.43 -444.04"/><polyline class="cls-4" points="-626.05 3.99 -607.29 8.25 -581.18 9.96 -549.43 17.94 -523.83 27 -474.95 38.22 -373.37 58.84 -279.44 87.93 -211.72 117.38 -90.57 151.66 209.43 284.74"/></g><circle class="cls-2" cx="28.24" cy="18.72" r="11.77"/><circle class="cls-2" cx="85.48" cy="52.52" r="11.77"/><circle class="cls-2" cx="14.52" cy="70.95" r="11.77"/><circle class="cls-2" cx="10" cy="42.89" r="5.63"/><circle class="cls-2" cx="74.49" cy="25.3" r="5.63"/><circle class="cls-2" cx="56.65" cy="87.88" r="5.16"/><circle class="cls-2" cx="46.4" cy="50.49" r="8.36"/><line class="cls-2" x1="33.97" y1="29" x2="42.2" y2="42.89"/><line class="cls-2" x1="53.39" y1="45.91" x2="70.25" y2="29"/><line class="cls-2" x1="54.76" y1="52.52" x2="73.71" y2="52.52"/><line class="cls-2" x1="40.01" y1="56.66" x2="24.79" y2="65.21"/><line class="cls-2" x1="49.02" y1="59.18" x2="55.63" y2="82.82"/><line class="cls-2" x1="15.63" y1="44.23" x2="38.08" y2="49.62"/></svg>