<?xml version="1.0" encoding="UTF-8"?><svg id="Layer_2" xmlns="http://www.w3.org/2000/svg" viewBox="0 0 134.94 230.07"><defs><style>.cls-1{fill:#1c3480;}.cls-1,.cls-2,.cls-3{stroke-width:0px;}.cls-4{isolation:isolate;}.cls-2{fill:#d4333a;}.cls-3{fill:#fff;}</style></defs><g id="Layer_1-2"><polygon class="cls-1" points="0 0 0 193.74 67.47 230.07 134.94 193.74 134.94 0 0 0"/><path class="cls-1" d="M127.3,205.6h-1.32v2.88h-1.21v-2.88h-1.3v-1.16h3.83v1.16h0ZM132.66,208.48h-1.21v-1.67l-.91,1.62h-.54l-.91-1.62v1.67h-1.21v-4.05h1.03l1.37,2.45,1.37-2.45h1.03v4.05h0Z"/><rect class="cls-2" width="134.94" height="134.94"/><path class="cls-3" d="M33.57,20.85v1.82c0,3.39-1.08,6.12-3.26,8.21-2.16,2.09-4.98,3.15-8.4,3.15-3.66,0-6.7-1.18-9.11-3.56-2.4-2.4-3.59-5.31-3.59-8.74s1.18-6.36,3.56-8.75c2.4-2.4,5.35-3.59,8.87-3.59,4.44,0,8.3,2.16,10.32,5.52l-4,2.29c-1.11-1.92-3.56-3.29-6.36-3.29-2.26,0-4.13.74-5.58,2.23-1.45,1.45-2.16,3.32-2.16,5.58s.74,4.1,2.19,5.55c1.48,1.45,3.46,2.16,5.89,2.16,3.63,0,6.06-1.69,6.9-4.5h-7.17v-4.13l11.89.05h0Z"/><path class="cls-3" d="M40.57,19.57c.78-2.16,2.7-3.26,4.89-3.26v4.87c-1.25-.17-2.41.1-3.41.81-1,.71-1.48,1.86-1.48,3.49v8.08h-4.15v-16.9h4.15v2.9h0Z"/><path class="cls-3" d="M52.46,26.92c.57,2.13,2.16,3.19,4.77,3.19,1.65,0,2.95-.57,3.8-1.69l3.53,2.02c-1.65,2.4-4.13,3.63-7.37,3.63-2.8,0-5.04-.84-6.73-2.53-1.69-1.69-2.53-3.83-2.53-6.39s.84-4.67,2.51-6.36c1.62-1.75,3.78-2.6,6.39-2.6,2.46,0,4.54.84,6.12,2.56,1.62,1.72,2.43,3.83,2.43,6.36,0,.57-.07,1.15-.17,1.79h-12.75v.02ZM61.01,23.53c-.51-2.29-2.19-3.42-4.2-3.42-2.33,0-3.93,1.25-4.44,3.42h8.64Z"/><path class="cls-3" d="M81.12,16.67h4.37v16.92h-4.37v-1.99c-1.32,1.65-3.14,2.46-5.52,2.46s-4.2-.84-5.82-2.56c-1.59-1.72-2.4-3.86-2.4-6.36s.81-4.6,2.4-6.33c1.62-1.72,3.56-2.6,5.82-2.6s4.2.81,5.52,2.46v-2.01h0ZM76.41,29.89c1.35,0,2.46-.44,3.36-1.32.91-.91,1.35-2.06,1.35-3.46s-.44-2.53-1.35-3.42c-.88-.91-1.99-1.35-3.36-1.35s-2.46.44-3.36,1.35c-.88.88-1.32,2.02-1.32,3.42s.44,2.53,1.32,3.46c.89.88,2.01,1.32,3.36,1.32"/><path class="cls-3" d="M99.79,20.85h-3.81v7.03c0,1.82,1.32,1.86,3.83,1.72v3.96c-5.99.67-8.18-1.05-8.18-5.68v-7.03h-2.95v-4.18h2.95v-3.42l4.37-1.32v4.74h3.83v4.18h-.03Z"/><path class="cls-3" d="M21.19,39.64c2.26,0,4.2.78,5.75,2.29,1.55,1.52,2.33,3.42,2.33,5.65s-.78,4.13-2.33,5.65c-1.55,1.52-3.49,2.29-5.75,2.29h-4.15v7.78h-4.67v-23.67h8.82ZM21.19,51.18c1.99,0,3.46-1.55,3.46-3.59s-1.45-3.59-3.46-3.59h-4.15v7.17l4.15.02h0Z"/><rect class="cls-3" x="32.45" y="39.86" width="4.37" height="23.46"/><path class="cls-3" d="M54.35,46.4h4.37v16.92h-4.37v-1.99c-1.32,1.65-3.14,2.46-5.52,2.46s-4.2-.84-5.82-2.56c-1.59-1.72-2.4-3.86-2.4-6.36s.81-4.6,2.4-6.33c1.62-1.72,3.56-2.61,5.82-2.61s4.2.81,5.52,2.46v-1.99h0ZM49.64,59.64c1.35,0,2.46-.44,3.36-1.32.91-.91,1.35-2.06,1.35-3.46s-.44-2.53-1.35-3.42c-.88-.91-1.99-1.35-3.36-1.35s-2.46.44-3.36,1.35c-.88.88-1.32,2.02-1.32,3.42s.44,2.53,1.32,3.46c.89.86,2.01,1.32,3.36,1.32"/><path class="cls-3" d="M65.01,61.23c-1.69-1.72-2.53-3.83-2.53-6.36s.84-4.64,2.53-6.36c1.72-1.72,3.86-2.56,6.39-2.56,3.29,0,6.19,1.69,7.57,4.37l-3.76,2.19c-.67-1.38-2.13-2.26-3.86-2.26-2.6,0-4.54,1.92-4.54,4.64,0,1.32.44,2.43,1.28,3.32.84.84,1.92,1.28,3.26,1.28,1.75,0,3.22-.84,3.9-2.23l3.8,2.16c-1.48,2.68-4.37,4.4-7.64,4.4-2.53-.02-4.66-.88-6.39-2.6"/><path class="cls-3" d="M86.02,56.66c.57,2.13,2.16,3.19,4.77,3.19,1.65,0,2.95-.57,3.8-1.69l3.53,2.02c-1.65,2.4-4.13,3.63-7.37,3.63-2.82,0-5.04-.84-6.73-2.53-1.69-1.69-2.53-3.83-2.53-6.39s.84-4.67,2.51-6.36c1.65-1.72,3.83-2.56,6.43-2.56,2.46,0,4.54.84,6.12,2.56,1.62,1.72,2.43,3.83,2.43,6.36,0,.57-.07,1.15-.17,1.79h-12.79v-.02ZM94.58,53.28c-.51-2.29-2.19-3.42-4.2-3.42-2.33,0-3.93,1.25-4.44,3.42h8.64Z"/><polygon class="cls-3" points="26.67 70.57 26.67 74.81 20.27 74.81 20.27 93.08 15.6 93.08 15.6 74.81 9.24 74.81 9.24 70.57 26.67 70.57"/><path class="cls-3" d="M33.94,93.55c-2.5,0-4.64-.84-6.36-2.56-1.72-1.72-2.56-3.86-2.56-6.36s.84-4.6,2.56-6.33c1.72-1.72,3.86-2.61,6.36-2.61s4.64.88,6.36,2.61c1.72,1.72,2.6,3.83,2.6,6.33s-.88,4.64-2.6,6.36c-1.72,1.72-3.85,2.56-6.36,2.56M33.94,89.28c1.32,0,2.4-.44,3.29-1.32.88-.88,1.32-1.99,1.32-3.36s-.44-2.46-1.32-3.36c-.88-.88-1.96-1.32-3.29-1.32s-2.4.44-3.29,1.32c-.84.88-1.28,1.99-1.28,3.36s.44,2.46,1.28,3.36c.89.88,1.97,1.32,3.29,1.32"/><polygon class="cls-3" points="16.51 124.2 9.88 100.51 14.79 100.51 19.33 118.07 24.27 100.51 28.25 100.51 33.23 118.07 37.77 100.51 42.67 100.51 36.05 124.2 30.73 124.2 26.26 108.58 21.83 124.2 16.51 124.2"/><path class="cls-3" d="M51.19,124.68c-2.5,0-4.64-.84-6.36-2.56-1.72-1.72-2.56-3.86-2.56-6.36s.84-4.6,2.56-6.33c1.72-1.72,3.86-2.61,6.36-2.61s4.64.88,6.36,2.61c1.72,1.72,2.61,3.83,2.61,6.33s-.88,4.64-2.61,6.36c-1.72,1.7-3.85,2.56-6.36,2.56M51.19,120.42c1.32,0,2.4-.44,3.29-1.32.88-.88,1.32-1.99,1.32-3.36s-.44-2.46-1.32-3.36c-.88-.88-1.96-1.32-3.29-1.32s-2.4.44-3.29,1.32c-.84.88-1.28,1.99-1.28,3.36s.44,2.46,1.28,3.36c.89.88,1.97,1.32,3.29,1.32"/><path class="cls-3" d="M67.61,110.2c.81-2.16,2.85-3.26,5.14-3.26v4.87c-1.32-.17-2.53.1-3.59.81-1.05.71-1.55,1.86-1.55,3.49v8.08h-4.37v-16.92h4.37v2.92h0Z"/><polygon class="cls-3" points="91.57 124.2 86.5 124.2 80.34 116.52 80.34 124.2 75.97 124.2 75.97 100.51 80.34 100.51 80.34 114.73 86.16 107.28 91.37 107.28 84.57 115.64 91.57 124.2"/><path class="cls-3" d="M93.16,121.16c0-2.13,1.69-3.83,3.83-3.83s3.83,1.69,3.83,3.81-1.69,3.81-3.83,3.81-3.83-1.65-3.83-3.8M100.13,121.14c0-1.87-1.32-3.19-3.14-3.19s-3.14,1.33-3.14,3.2,1.38,3.17,3.14,3.17,3.14-1.32,3.14-3.19M95.67,119.2h1.33c.88,0,1.45.37,1.45,1.13v.02c0,.57-.32.88-.78,1.01l1,1.6h-.86l-.91-1.47h-.39v1.47h-.83l-.02-3.76h0ZM96.99,120.96c.42,0,.66-.19.66-.56v-.02c0-.39-.24-.54-.66-.54h-.49v1.1h.49v.02Z"/><path class="cls-3" d="M14.28,156.26c0-5.47,4.05-9.72,9.72-9.72,3.42,0,6.43,1.74,8.03,4.4l-3.17,1.84c-.91-1.65-2.72-2.67-4.86-2.67-3.66,0-6.06,2.53-6.06,6.14s2.4,6.11,6.06,6.11c2.14,0,3.98-1.01,4.86-2.65l3.17,1.84c-1.57,2.67-4.59,4.4-8.03,4.4-5.67.02-9.72-4.25-9.72-9.7Z"/><path class="cls-3" d="M40.13,162.86c1.33,0,2.4-.56,2.99-1.33l2.78,1.6c-1.25,1.82-3.26,2.85-5.82,2.85-4.49,0-7.32-3.07-7.32-7.05s2.85-7.05,7.05-7.05c3.95,0,6.75,3.12,6.75,7.05,0,.51-.05.96-.13,1.42h-10.07c.49,1.77,1.96,2.51,3.78,2.51h0ZM43.12,157.68c-.42-1.92-1.87-2.7-3.31-2.7-1.84,0-3.1,1-3.49,2.7h6.8Z"/><path class="cls-3" d="M55.8,151.99v3.85c-1.79-.22-4.05.59-4.05,3.39v6.38h-3.44v-13.34h3.44v2.29c.69-1.82,2.36-2.56,4.05-2.56h0Z"/><path class="cls-3" d="M63.19,155.57v5.55c0,1.43,1.05,1.47,3.02,1.37v3.12c-4.82.54-6.46-.88-6.46-4.49v-5.55h-2.33v-3.31h2.33v-2.7l3.44-1.05v3.74h3.02v3.31h-3.02Z"/><path class="cls-3" d="M68.37,148.55c0-1.15.96-2.14,2.11-2.14s2.14,1,2.14,2.14-.96,2.11-2.14,2.11-2.11-.96-2.11-2.11ZM68.77,152.26h3.44v13.34h-3.44v-13.34Z"/><path class="cls-3" d="M79.77,152.13v.13h2.83v3.31h-2.83v10.04h-3.44v-10.04h-1.92v-3.31h1.92v-.13c0-3.68,2.02-5.85,6.27-5.58v3.31c-1.79-.13-2.83.46-2.83,2.28Z"/><path class="cls-3" d="M84.36,148.55c0-1.15.96-2.14,2.11-2.14s2.14,1,2.14,2.14-.96,2.11-2.14,2.11-2.11-.96-2.11-2.11h0ZM84.76,152.26h3.44v13.34h-3.44v-13.34Z"/><path class="cls-3" d="M97.7,162.86c1.33,0,2.4-.56,2.99-1.33l2.78,1.6c-1.25,1.82-3.26,2.85-5.82,2.85-4.49,0-7.32-3.07-7.32-7.05s2.85-7.05,7.05-7.05c3.95,0,6.75,3.12,6.75,7.05,0,.51-.05.96-.13,1.42h-10.07c.51,1.77,1.97,2.51,3.78,2.51h0ZM100.7,157.68c-.42-1.92-1.87-2.7-3.31-2.7-1.84,0-3.1,1-3.49,2.7h6.8Z"/><path class="cls-3" d="M119.7,146.92v18.69h-3.44v-1.57c-.96,1.23-2.38,1.94-4.32,1.94-3.58,0-6.51-3.07-6.51-7.05s2.93-7.05,6.51-7.05c1.94,0,3.36.73,4.32,1.94v-6.92l3.44.02h0ZM116.26,158.93c0-2.24-1.57-3.76-3.68-3.76s-3.71,1.52-3.71,3.76,1.57,3.76,3.71,3.76,3.68-1.52,3.68-3.76Z"/><g class="cls-4"><path class="cls-3" d="M13.21,186.33l1.4-.8c.26.52.64.78,1.32.78.9,0,1.29-.47,1.29-1.14v-5.69h1.62v5.69c0,1.78-1.28,2.74-2.9,2.74-1.26,0-2.22-.54-2.73-1.57Z"/><path class="cls-3" d="M24.89,186.25h-3.29l-.5,1.49h-1.76l2.89-8.26h2.02l2.9,8.26h-1.77l-.5-1.49ZM24.38,184.73l-1.13-3.38-1.13,3.38h2.27Z"/><path class="cls-3" d="M34.37,179.47v8.26h-1.24l-3.54-5.05v5.05h-1.63v-8.26h1.24l3.54,5.04v-5.04h1.63Z"/><path class="cls-3" d="M38.41,186.52l2.82-2.9c.53-.55.94-1.1.94-1.65,0-.66-.45-1.07-1.07-1.07s-1.11.38-1.38.97l-1.37-.8c.53-1.18,1.61-1.75,2.73-1.75,1.42,0,2.73.94,2.73,2.6,0,1-.58,1.87-1.36,2.64l-1.62,1.62h3.1v1.57h-5.52v-1.22Z"/><path class="cls-3" d="M44.65,183.6c0-2.55,1.2-4.3,3.3-4.3s3.3,1.75,3.3,4.3-1.19,4.3-3.3,4.3-3.3-1.75-3.3-4.3ZM49.65,183.6c0-1.75-.58-2.71-1.69-2.71s-1.68.97-1.68,2.71.57,2.7,1.68,2.7,1.69-.96,1.69-2.7Z"/><path class="cls-3" d="M51.78,186.52l2.82-2.9c.53-.55.94-1.1.94-1.65,0-.66-.45-1.07-1.07-1.07s-1.11.38-1.38.97l-1.37-.8c.53-1.18,1.61-1.75,2.73-1.75,1.42,0,2.73.94,2.73,2.6,0,1-.58,1.87-1.36,2.64l-1.62,1.62h3.1v1.57h-5.52v-1.22Z"/><path class="cls-3" d="M64.26,186.33h-.88v1.4h-1.64v-1.4h-3.91v-1.51l2.75-5.35h1.75l-2.74,5.35h2.15v-1.96h1.64v1.96h.88v1.51Z"/><path class="cls-3" d="M65.2,183.44h4.43v1.46h-4.43v-1.46Z"/><path class="cls-3" d="M70.31,186.33l1.4-.8c.26.52.64.78,1.32.78.9,0,1.29-.47,1.29-1.14v-5.69h1.62v5.69c0,1.78-1.28,2.74-2.9,2.74-1.26,0-2.22-.54-2.73-1.57Z"/><path class="cls-3" d="M81.99,186.25h-3.29l-.5,1.49h-1.76l2.89-8.26h2.02l2.9,8.26h-1.77l-.5-1.49ZM81.48,184.73l-1.13-3.38-1.13,3.38h2.27Z"/><path class="cls-3" d="M91.47,179.47v8.26h-1.24l-3.54-5.05v5.05h-1.63v-8.26h1.24l3.54,5.04v-5.04h1.63Z"/><path class="cls-3" d="M95.51,186.52l2.82-2.9c.53-.55.94-1.1.94-1.65,0-.66-.45-1.07-1.07-1.07s-1.11.38-1.38.97l-1.37-.8c.53-1.18,1.61-1.75,2.73-1.75,1.42,0,2.73.94,2.73,2.6,0,1-.58,1.87-1.36,2.64l-1.62,1.62h3.1v1.57h-5.52v-1.22Z"/><path class="cls-3" d="M101.75,183.6c0-2.55,1.2-4.3,3.3-4.3s3.3,1.75,3.3,4.3-1.19,4.3-3.3,4.3-3.3-1.75-3.3-4.3ZM106.74,183.6c0-1.75-.58-2.71-1.69-2.71s-1.68.97-1.68,2.71.57,2.7,1.68,2.7,1.69-.96,1.69-2.7Z"/><path class="cls-3" d="M108.88,186.52l2.82-2.9c.53-.55.94-1.1.94-1.65,0-.66-.45-1.07-1.07-1.07s-1.11.38-1.38.97l-1.37-.8c.53-1.18,1.61-1.75,2.73-1.75,1.42,0,2.73.94,2.73,2.6,0,1-.58,1.87-1.36,2.64l-1.62,1.62h3.1v1.57h-5.52v-1.22Z"/><path class="cls-3" d="M120.81,185.19c0,1.77-1.39,2.71-2.95,2.71-1.29,0-2.41-.57-2.88-1.77l1.39-.81c.2.64.66.99,1.49.99s1.32-.45,1.32-1.12-.47-1.12-1.28-1.12h-2.5l.33-4.59h4.69v1.52h-3.18l-.11,1.49h.85c1.51,0,2.82.93,2.82,2.7Z"/></g><g class="cls-4"><path class="cls-3" d="M53.8,200.05v8.26h-1.63v-8.26h1.63Z"/><path class="cls-3" d="M61.74,200.05v8.26h-1.24l-3.54-5.05v5.05h-1.63v-8.26h1.24l3.54,5.04v-5.04h1.63Z"/><path class="cls-3" d="M70.54,204.18c0,2.33-1.7,4.13-3.98,4.13h-3.28v-8.26h3.28c2.28,0,3.98,1.81,3.98,4.13ZM68.98,204.18c0-1.52-.99-2.57-2.42-2.57h-1.65v5.15h1.65c1.43,0,2.42-1.05,2.42-2.57Z"/><path class="cls-3" d="M73.32,200.05v8.26h-1.63v-8.26h1.63Z"/><path class="cls-3" d="M79.67,206.83h-3.29l-.5,1.49h-1.76l2.89-8.26h2.02l2.9,8.26h-1.77l-.5-1.49ZM79.17,205.3l-1.13-3.38-1.13,3.38h2.27Z"/></g></g></svg>